Coordinates
version=1
nRows=14
nColumns=36
inDegrees=yes

Units are S.I. units (second, meters, Newtons, ...)
If the header above contains a line with 'inDegrees', this indicates whether rotational values are in degrees (yes) or radians (no).

endheader
time	pelvis_tilt	pelvis_list	pelvis_rotation	pelvis_tx	pelvis_ty	pelvis_tz	hip_flexion_r	hip_adduction_r	hip_rotation_r	knee_angle_r	knee_angle_r_beta	ankle_angle_r	subtalar_angle_r	mtp_angle_r	hip_flexion_l	hip_adduction_l	hip_rotation_l	knee_angle_l	knee_angle_l_beta	ankle_angle_l	subtalar_angle_l	mtp_angle_l	lumbar_extension	lumbar_bending	lumbar_rotation	arm_flex_r	arm_add_r	arm_rot_r	elbow_flex_r	pro_sup_r	arm_flex_l	arm_add_l	arm_rot_l	elbow_flex_l	pro_sup_l
     15.25000000	     -4.73536768	     -1.88315735	     -2.99327354	      0.90926662	      0.80063798	      0.73401919	     -5.36742348	      4.71371023	      0.42868573	      7.70030227	      0.13439563	     16.17123200	      3.06037706	     -7.49999987	     32.65997053	     -3.14669131	     -2.71822601	     12.28607094	      0.21443239	      8.58496702	     -0.55985011	     -7.49999987	     -1.18383137	      3.05122941	      8.24062496	     12.21672003	    -18.49127043	      6.80149328	     26.87493781	     89.64434383	      2.03506070	     -7.72861993	      6.85012156	      9.67901235	     92.64636560
     15.26666670	     -4.83947436	     -1.80928430	     -3.02363340	      0.90740832	      0.79679768	      0.73232490	     -6.88657770	      4.55172876	      0.60332274	      7.06367357	      0.12328436	     17.46271686	      4.28228185	     -7.49999987	     32.72341277	     -2.95402381	     -1.75693982	      8.06432289	      0.14074899	      9.30992448	      1.28598696	     -7.49999987	     -1.13895262	      2.97430772	      8.27742745	     12.91403755	    -18.66090021	      7.01213478	     27.55169891	     90.03117290	      2.02076420	     -7.53315167	      6.52574742	      9.60969850	     92.74851968
     15.28333330	     -4.91601671	     -1.58340819	     -3.08218960	      0.90852438	      0.79500009	      0.73118356	     -8.18435987	      4.18830005	      1.00477296	      6.79150543	      0.11853413	     18.55400733	      4.96293933	     -7.49999987	     32.81320768	     -2.59792172	     -0.96263958	      5.52462846	      0.09642296	      9.88795871	      2.38965399	     -7.49999987	     -0.96481349	      2.70048944	      8.32105125	     13.41166082	    -18.65727331	      7.15930002	     27.94502963	     90.47374383	      2.07042934	     -7.40244971	      6.02253619	      9.33396128	     92.82792794
     15.30000000	     -4.85071822	     -1.15499073	     -3.21463319	      0.91258831	      0.79362147	      0.73051843	     -9.56385542	      3.56105904	      1.49188555	      6.75360268	      0.11787260	     19.51691293	      5.13013937	     -7.49999987	     32.78219847	     -2.01708265	     -0.52794248	      4.73163643	      0.08258263	     10.25806418	      2.62400173	     -7.49999987	     -0.76238868	      2.16647153	      8.26306290	     13.98797117	    -18.41097443	      7.05875220	     27.82802802	     94.65231285	      2.08169236	     -7.29150031	      3.12378558	      9.15168827	     94.96500645
     15.31666670	     -4.85822499	     -0.58200813	     -3.34897038	      0.91695719	      0.78999592	      0.72970173	    -10.88966142	      2.75780363	      1.84077473	      6.90652939	      0.12054168	     20.41338010	      4.92341253	     -7.49999987	     32.87692962	     -1.23199082	     -0.57080991	      5.51038308	      0.09617433	     10.38467513	      2.35250216	     -7.49999987	     -0.25361141	      1.44386904	      8.39553674	     14.01778979	    -18.12911040	      7.05966636	     27.96493573	     94.56718045	      2.09837374	     -7.47356785	      3.06172133	      9.23978766	     94.86252801
     15.33333330	     -4.14559124	      0.19249504	     -3.53299306	      0.91920466	      0.78565660	      0.72912214	    -12.95973932	      1.67486282	      2.19321238	      7.27270541	      0.12693265	     20.79766311	      4.17984743	     -7.49999987	     32.04192609	     -0.17603090	     -0.68578569	      7.01227633	      0.12238731	      9.75262620	      1.14767697	     -7.49999987	     -0.62985738	      0.33381343	      8.76736151	     14.19244965	    -17.71304752	      6.78137477	     27.75755784	     94.48228549	      2.86374543	     -7.65625359	      2.70697631	      8.39243696	     94.68350726
     15.35000000	     -3.84128428	      0.86641598	     -3.60973313	      0.92018318	      0.78108619	      0.72890963	    -14.42584120	      0.75808014	      2.56382992	      8.04057153	      0.14033445	     20.62706731	      2.98100525	     -7.49999987	     31.71427632	      0.81915503	     -0.56239213	      9.24776086	      0.16140388	      8.67201704	     -0.69798035	     -7.49999987	     -0.42938437	     -0.60399212	      9.05827258	     13.99029992	    -17.26649348	      6.41545191	     27.75148431	     91.81552124	      3.62762672	     -7.81534659	      2.70677806	      7.40283150	     91.89139719
     15.36666670	     -3.45029773	      1.53341333	     -3.59992137	      0.92206903	      0.77867926	      0.72807418	    -15.63205112	     -0.14357030	      2.88900110	      9.38458623	      0.16379193	     19.66855982	      1.27652270	     -7.49999987	     31.20653929	      1.84611191	     -0.24390104	     11.66818608	      0.20364826	      7.20512043	     -2.72366432	     -7.49999987	     -0.42311208	     -1.59136379	      9.18747657	     13.69784502	    -16.85110656	      6.11716870	     27.87772204	     92.77161992	      4.16154179	     -8.21394443	      2.82551358	      7.01945625	     92.49487543
     15.38333330	     -3.23824198	      2.15607972	     -3.46554404	      0.92715772	      0.77901256	      0.72519590	    -16.13321890	     -0.99198978	      3.20147819	     11.53504987	      0.20132460	     17.65146226	     -1.01196580	     -7.49999987	     30.75621819	      2.90083807	      0.30099557	     14.10897140	      0.24624801	      5.61982142	     -4.88551473	     -7.49999987	     -0.19686903	     -2.45084505	      8.97976875	     13.23732154	    -16.29579428	      5.73015917	     27.86001189	     93.24017450	      4.41048460	     -8.57517116	      2.49022536	      6.65463050	     92.89680544
     15.40000000	     -3.05972916	      2.79846204	     -3.11002782	      0.93488244	      0.78178825	      0.72061753	    -15.78820547	     -1.89868695	      2.92629905	     15.06286030	      0.26289651	     14.71881023	     -3.05817767	     -7.49999987	     30.10054349	      4.10382647	      0.92723295	     16.30520386	      0.28457949	      4.54027651	     -6.35562803	     -7.49999987	      0.03983600	     -3.34428291	      8.50146835	     12.49662165	    -15.76521241	      5.43753110	     27.75394084	     93.53443599	      4.35802553	     -8.88775793	      2.20791712	      6.45583876	     93.10726211
     15.41666670	     -2.51948647	      3.39961052	     -2.54942521	      0.94239722	      0.78659271	      0.71608725	    -14.94553694	     -2.96599890	      1.43530658	     19.99832500	      0.34903662	     10.62128171	     -3.52922045	     -7.49999987	     28.70281320	      5.37033450	      1.40738803	     17.99918593	      0.31414506	      4.51953945	     -6.55709951	     -7.49999987	     -0.18142553	     -4.10093101	      7.92915266	     11.41767833	    -15.42964670	      5.46447146	     27.49559679	     93.54420808	      4.19048671	     -9.09501810	      2.16373835	      6.66065600	     93.08781486
     15.43333330	     -2.77527643	      3.94826843	     -2.05103248	      0.94705339	      0.79204514	      0.71390370	    -12.15461484	     -3.77372627	      1.36239132	     26.53109266	      0.46305492	      4.34430932	     -7.21711206	     -7.49999987	     27.93956081	      6.48190445	      2.20290410	     19.26558468	      0.33624788	      4.60436379	     -7.42727989	     -7.49999987	      0.65000981	     -4.92712839	      7.27785160	     10.15245092	    -14.75028297	      5.13660014	     26.74670054	     91.81556067	      4.07129630	     -9.32360638	      2.07610159	      6.04303028	     91.03874308
     15.45000000	     -2.77881720	      4.41983344	     -1.63416398	      0.94806860	      0.79975316	      0.71322017	     -9.08878010	     -4.66989216	      0.70778635	     33.39808595	      0.58290656	     -2.28274386	     -8.92842277	     -7.49999987	     26.54735415	      7.39621170	      2.78586935	     19.79897728	      0.34555734	      5.54930255	     -7.16854579	     -7.49999987	      1.01555936	     -5.57906368	      6.65837331	      8.79613321	    -14.01723219	      2.93979371	     26.25456996	    100.07356477	      3.96947260	     -9.69211845	      1.17048602	      6.35941543	     97.28954568
     15.46666670	     -2.62065506	      4.72445003	     -1.51378882	      0.94605286	      0.80633013	      0.71279419	     -5.66216466	     -5.37160651	      0.49076090	     40.28908552	      0.70317719	     -8.40265131	    -10.36041536	     -7.49999987	     24.70301004	      7.96088660	      3.24302671	     19.58310741	      0.34178970	      6.51102227	     -6.73494310	     -7.49999987	      0.96345335	     -6.04904127	      5.99142708	      8.00077683	    -13.50215707	      3.83278133	     25.15718213	     97.66857408	      4.11363721	     -9.94046911	      1.96968805	      6.61032823	     94.69866309
